<svg xmlns="http://www.w3.org/2000/svg" viewBox="0 0 336 280"><defs><style>.cls-1{fill:#fff}</style></defs><title>336x280 Frame 4</title><path class="cls-1" d="M109.18 218.34h-4l-.46-2.4-.49-1.72-3.61-.09-3.18.09-.44 1.52-.49 2.6h-3.83l6.25-18.45h4.61zm-5.73-7.13l-2.17-7.68H101l-2.52 7.68 2.46.06zm19.96-9.89a5.47 5.47 0 0 1 1.56 4.19 7.09 7.09 0 0 1-.91 3.65 6.17 6.17 0 0 1-2.63 2.42 8.76 8.76 0 0 1-4 .86h-1.83v.06l.18 5.84h-3.9l.2-5.5-.2-13h7.08a6.28 6.28 0 0 1 4.45 1.48zm-2.48 4.53a3.1 3.1 0 0 0-.78-2.31 3.64 3.64 0 0 0-2.43-.81l-1.94.11-.12 6.65 2.64.11a3.46 3.46 0 0 0 2.63-3.75zm18.33-4.53a5.47 5.47 0 0 1 1.56 4.19 7.09 7.09 0 0 1-.92 3.65 6.15 6.15 0 0 1-2.62 2.42 8.83 8.83 0 0 1-4 .86h-1.83v.06l.17 5.84h-3.9l.21-5.5-.21-13h7.08a6.31 6.31 0 0 1 4.46 1.48zm-2.48 4.53a3.07 3.07 0 0 0-.79-2.31 3.59 3.59 0 0 0-2.42-.81l-1.95.11-.11 6.65 2.63.11a3.46 3.46 0 0 0 2.64-3.75zm16.91 9.6l-.26 2.89h-10l.2-5.5-.2-13h3.95l-.23 12.61.09 2.63h6.19zm7.79-2.24l.17 5.13h-3.86l.17-5.13v-1.08l-5.88-12.24h4.13l.4 1.29 3.13 7h.26l3.5-6.91.54-1.4h4l-6.5 12.13zm28.26-.57l.14 5.7h-4.18l-7.54-12.49h-.23v6.13l.12 6.36h-3.53l.2-5.44-.17-13h4.16l7.53 12.49h.26l-.09-12.32 3.59-.23zM207.46 202a9.77 9.77 0 0 1 2.11 6.72q0 4.75-2.3 7.33a8.18 8.18 0 0 1-6.47 2.58 7.52 7.52 0 0 1-6-2.42q-2.1-2.42-2.1-6.86 0-4.68 2.28-7.2a8.25 8.25 0 0 1 6.46-2.52 7.59 7.59 0 0 1 6.02 2.37zm-9.67 2.19a8.13 8.13 0 0 0-1 4.67q0 3.69 1 5.27a3.72 3.72 0 0 0 3.37 1.58 3.8 3.8 0 0 0 3.33-1.45 8.41 8.41 0 0 0 1-4.74q0-3.65-1-5.2a3.72 3.72 0 0 0-3.37-1.56 3.79 3.79 0 0 0-3.33 1.43zm31.55 14.15h-4.07l-2.75-8.82h-.26l-2.78 8.82h-4.1l-5.15-18.45H214l.28 2.26 3.27 12.18h.26l3.12-9.94-1.32-4.5h4l.43 2.66 3.32 11.78h.26l3.73-11.92.45-2.52h3.62z" id="Apply_Now" data-name="Apply Now"/></svg>