<svg xmlns="http://www.w3.org/2000/svg" viewBox="0 0 336 280"><defs><style>.cls-1{fill:#003882}.cls-2{fill:none;stroke:#1db8d3;stroke-miterlimit:10;stroke-width:2px}</style></defs><title>336x280 Frame 3</title><path class="cls-1" d="M74.31 201.9h-4.76L69 199l-.58-2.07-4.35-.1-3.83.1-.59 1.83-.58 3.14h-4.64L62 179.68h5.55zm-6.9-8.59l-2.63-9.25h-.31l-3 9.25 3 .07zM90 180.06l-.27 3.48-4.18-.21h-1.41L84 194.86l.21 7h-4.7l.24-6.63-.17-11.94h-1.41l-4.24.21-.31-.38.31-3.48H89.7zm26.13 20.87l-.07.52a36.14 36.14 0 0 1-4.56.79l-.5-.24q-4.52-6-8-11.53l-.07 4.42.18 7h-4.75l.24-6.63-.24-15.59h4.72l-.17 10.33 6.25-8.17 1.27-2.14h5l-7.87 10.49q3.75 5.12 8.57 10.75zm16.35-2.93l.28.38-.31 3.49h-13.94l.24-6.63-.24-15.59h14.08l.27.38-.34 3.48-5.32-.17h-4l-.1 5.35 3.83.07 3.62-.1.28.34-.31 3.49-3.94-.11h-3.55v2.38l.11 3.35h3.9zm21.95-3l.17 6.87h-5l-9.07-15.05h-.28v7.39l.13 7.66h-4.24l.24-6.56-.2-15.66h5l9.07 15h.31l-.1-14.84 4.31-.27zM174 180.06l-.27 3.48-4.18-.21h-1.38l-.17 11.53.21 7h-4.7l.24-6.63-.17-11.94h-1.38l-4.24.21-.31-.38.31-3.48h15.77z" id="line3"/><path class="cls-1" d="M75.21 160.53l.17 6.86h-5l-9.08-15H61v7.38l.14 7.66h-4.29l.24-6.55-.21-15.67h5L71 160.22h.31l-.1-14.84 4.31-.28zm21.34-12.82c1.69 1.9 2.53 4.59 2.53 8.09q0 5.73-2.76 8.83a9.89 9.89 0 0 1-7.8 3.11 9 9 0 0 1-7.19-2.92c-1.69-1.94-2.54-4.7-2.54-8.26q0-5.62 2.75-8.66t7.78-3a9.17 9.17 0 0 1 7.23 2.81zm-11.65 2.64q-1.25 1.72-1.24 5.62 0 4.46 1.22 6.35a4.46 4.46 0 0 0 4.06 1.9 4.58 4.58 0 0 0 4-1.74c.83-1.16 1.24-3.07 1.24-5.71 0-2.93-.41-5-1.22-6.27a4.49 4.49 0 0 0-4.06-1.88 4.59 4.59 0 0 0-4 1.73zm37.99 17.04H118l-3.31-10.62h-.31L111 167.39h-4.93l-6.21-22.22h4.59l.34 2.73 3.93 14.66h.31l3.77-12-1.59-5.42H116l.52 3.21 4 14.18h.31l4.49-14.35.55-3h4.35z" id="line2"/><path class="cls-1" d="M74.31 132.89h-4.76L69 130l-.58-2.07-4.35-.1-3.83.1-.59 1.83-.58 3.14h-4.64L62 110.67h5.55zm-6.9-8.59l-2.63-9.25h-.31l-3 9.25 3 .07zm24.03-11.91a6.58 6.58 0 0 1 1.88 5 8.58 8.58 0 0 1-1.1 4.4 7.58 7.58 0 0 1-3.16 2.92 10.6 10.6 0 0 1-4.82 1H82v.07l.2 7h-4.65l.24-6.63-.24-15.59h8.52a7.57 7.57 0 0 1 5.37 1.83zm-3 5.45a3.69 3.69 0 0 0-.94-2.77 4.34 4.34 0 0 0-2.92-1l-2.35.14-.13 8 3.17.13c2.13-.57 3.18-2.08 3.18-4.5zm22.08-5.45a6.58 6.58 0 0 1 1.88 5 8.58 8.58 0 0 1-1.1 4.4 7.58 7.58 0 0 1-3.16 2.92 10.55 10.55 0 0 1-4.81 1h-2.21v.07l.2 7h-4.69l.24-6.63-.24-15.59h8.52a7.57 7.57 0 0 1 5.37 1.83zm-3 5.45a3.69 3.69 0 0 0-1-2.77 4.34 4.34 0 0 0-2.92-1l-2.35.14-.13 8 3.17.13q3.25-.86 3.25-4.5zm20.37 11.56l-.31 3.49h-12l.25-6.63-.25-15.59h4.77l-.28 15.18.1 3.17h7.46zm9.39-2.69l.21 6.18h-4.66l.21-6.18v-1.31l-7.07-14.73h5l.48 1.55 3.76 8.45h.31l4.21-8.31.66-1.69h4.79l-7.76 14.56z" id="line1"/><path class="cls-2" d="M121 246l76.53-69" id="stroke2c"/><path class="cls-2" d="M210.53 177L134 246" id="stroke2d"/><path class="cls-2" d="M20.18 131.43l76.53-69" id="stroke2a"/><path class="cls-2" d="M109.36 61.42l-76.53 69" id="stroke2b"/></svg>