<svg xmlns="http://www.w3.org/2000/svg" viewBox="0 0 336 280"><defs><style>.cls-1{fill:#1db8d3}.cls-2{fill:none;stroke:#003882;stroke-miterlimit:10;stroke-width:1.25px}</style></defs><title>336x280 Frame 1 copy 3</title><path class="cls-1" d="M74.91 223.19H70l-3.32-10.62h-.31L63 223.19h-4.9L51.89 201h4.59l.35 2.73 3.93 14.66h.31l3.76-12-1.59-5.39H68l.51 3.21 4 14.18h.31l4.5-14.39.55-3h4.35zm25.41-19.68c1.69 1.9 2.54 4.59 2.54 8.09q0 5.73-2.76 8.83a9.89 9.89 0 0 1-7.8 3.11 9 9 0 0 1-7.2-2.92q-2.53-2.91-2.53-8.26 0-5.62 2.74-8.66t7.78-3a9.17 9.17 0 0 1 7.23 2.81zm-11.65 2.64c-.82 1.15-1.24 3-1.24 5.62q0 4.46 1.23 6.35a4.44 4.44 0 0 0 4 1.9 4.56 4.56 0 0 0 4-1.74c.83-1.16 1.25-3.07 1.25-5.71q0-4.38-1.23-6.27a4.47 4.47 0 0 0-4-1.88 4.61 4.61 0 0 0-4.01 1.73zm34.65 15.94l-.07.52a16.58 16.58 0 0 1-4.59.93l-.48-.38c-1.66-2.85-3-5.34-4-7.45h-3.35v.45l.21 7h-4.69l.24-6.62-.24-15.6h8.52a7.76 7.76 0 0 1 5.38 1.71 6.21 6.21 0 0 1 1.9 4.88 7.33 7.33 0 0 1-1.09 3.92 8.46 8.46 0 0 1-3 2.91q2.6 4.28 5.26 7.73zm-12.46-10l3.42.14a4.07 4.07 0 0 0 2.93-4.24 3.42 3.42 0 0 0-.95-2.64 4.39 4.39 0 0 0-2.91-1l-2.35.14zm27.98 7.62l-.31 3.48h-12l.24-6.62-.24-15.6h4.76l-.29 15.19.11 3.17h7.45zM158 203.53q2.59 2.68 2.59 7.73 0 5.9-2.9 9t-8.28 3.14c-1.08 0-2.38 0-3.88-.07s-2.8-.11-3.88-.18l.24-6.62-.24-15.6 8.93-.14c3.18.04 5.66.94 7.42 2.74zm-2.28 8.8q0-4.08-1.33-5.92a4.76 4.76 0 0 0-4.15-1.85c-1.22 0-2.52.06-3.9.17l-.21 11.43.1 3.41c1.61.16 2.95.24 4 .24q5.45 0 5.45-7.48z" id="word3"/><path class="cls-1" d="M59.9 146.87L60 150a7.73 7.73 0 0 1-.66 3.35 6.58 6.58 0 0 1-2.12 2.45 17.36 17.36 0 0 1-4 2l-1.42-2.48v-.42a9.22 9.22 0 0 0 3-2.19 4.3 4.3 0 0 0 .88-2.81v-2.62l-.2-11.91-3.66.11-.35-.35.25-3.21h8.45zm21.3-12.37c1.7 1.9 2.54 4.59 2.54 8.09q0 5.73-2.76 8.83a9.89 9.89 0 0 1-7.8 3.11 9 9 0 0 1-7.18-2.92q-2.53-2.91-2.54-8.26c0-3.75.92-6.64 2.74-8.66s4.43-3 7.79-3a9.16 9.16 0 0 1 7.21 2.81zm-11.64 2.64q-1.25 1.73-1.24 5.62 0 4.45 1.22 6.35A4.46 4.46 0 0 0 73.6 151a4.58 4.58 0 0 0 4-1.74c.83-1.16 1.24-3.07 1.24-5.71 0-2.93-.41-5-1.22-6.27a4.49 4.49 0 0 0-4.06-1.88 4.59 4.59 0 0 0-4 1.74zm22.12 10l.2 7h-4.69l.24-6.62-.24-15.52H92zm24.05.18l.17 6.86h-5l-9.07-15h-.28v7.38l.13 7.66h-4.31l.24-6.55L97.4 132h5l9.07 15h.31l-.1-14.84 4.31-.28z" id="word-1"/><path class="cls-1" d="M70 169q2.54 2.85 2.53 8.1c0 3.81-.92 6.76-2.76 8.83s-4.44 3.1-7.8 3.1a9 9 0 0 1-7.19-2.91c-1.69-2-2.54-4.7-2.54-8.27 0-3.75.92-6.63 2.75-8.66s4.42-3 7.78-3A9.23 9.23 0 0 1 70 169zm-11.65 2.64q-1.25 1.73-1.24 5.63c0 3 .41 5.08 1.22 6.35a4.47 4.47 0 0 0 4.06 1.89 4.58 4.58 0 0 0 4-1.74q1.25-1.74 1.24-5.71 0-4.38-1.22-6.26a4.47 4.47 0 0 0-4.06-1.88 4.59 4.59 0 0 0-4.04 1.72zm34.84 6.11v2.93a7.9 7.9 0 0 1-2.31 6.15c-1.6 1.44-3.88 2.17-6.76 2.17s-5-.7-6.42-2.11a7.63 7.63 0 0 1-2.1-6v-3.21l-.1-11.18h4.69L80 180.24a5.26 5.26 0 0 0 1.05 3.76 4.29 4.29 0 0 0 3.35 1.21q4.48 0 4.45-4.69l-.25-14h4.77zm21.95 9.83l-.07.52a16.58 16.58 0 0 1-4.59.93l-.48-.38c-1.66-2.85-3-5.33-4-7.45h-3.35v.45l.21 7h-4.73l.24-6.63-.24-15.59h8.52a7.76 7.76 0 0 1 5.38 1.71 6.22 6.22 0 0 1 1.9 4.88 7.31 7.31 0 0 1-1.09 3.92 8.48 8.48 0 0 1-3 2.92q2.64 4.28 5.3 7.72zm-12.46-10l3.42.14a4.08 4.08 0 0 0 2.93-4.25 3.41 3.41 0 0 0-1-2.64 4.45 4.45 0 0 0-2.91-1l-2.35.14z" id="word2"/><g id="Stroke_1_Dark_Blue" data-name="Stroke 1 Dark Blue"><path id="stroke1" class="cls-2" d="M17.26 152.73l76.53-69"/><path id="stroke2" class="cls-2" d="M106.79 83.7l-76.53 69"/><path id="stroke3" class="cls-2" d="M94.26 277.73l76.53-69"/><path id="stroke4" class="cls-2" d="M183.79 208.7l-76.53 69"/></g></svg>