<svg xmlns="http://www.w3.org/2000/svg" viewBox="0 0 336 280"><defs><style>.cls-1{fill:#fff}</style></defs><title>336x280 Frame 4</title><g id="Kent_Logo" data-name="Kent Logo"><path class="cls-1" d="M115 106.44c-4.38 0-5.31-2.4-5.31-5v-9.2h2.25v9c0 1.86.62 3.27 3.2 3.27 2.28 0 3.31-1 3.31-3.56v-8.67h2.21v8.58c0 3.72-2 5.58-5.66 5.58m14.92-.21v-6.59c0-1.28-.35-2-1.54-2-1.53 0-2.69 1.64-2.69 3.7v4.94h-2.19v-8.6a12.58 12.58 0 0 0-1.53-.21v-1.36a22.79 22.79 0 0 1 3.64-.15 14.62 14.62 0 0 1-.17 2 3.74 3.74 0 0 1 3.56-2.21c2.33 0 3.08 1.49 3.08 3.29v7.19h-2.2m5.89-12.13a1.34 1.34 0 0 1-1.36-1.34 1.38 1.38 0 1 1 1.36 1.34m-1.09 12.13v-8.55a12.58 12.58 0 0 0-1.53-.21v-1.36a23.35 23.35 0 0 1 3.72-.15v10.27h-2.19m9.56 0H142L138.15 96h2.44l1.92 5.44c.25.7.47 1.42.66 2.1.17-.64.37-1.36.6-2l2-5.52h2.38l-3.89 10.27m8.51-8.9a2.36 2.36 0 0 0-2.29 2.35h4.36a2 2 0 0 0-2.07-2.35m4.22 3.88h-6.55c-.06 2.34 1 3.39 3 3.39a7.4 7.4 0 0 0 3-.62l.29 1.74a10 10 0 0 1-3.64.66c-3.16 0-4.91-1.66-4.91-5.27 0-3.1 1.69-5.42 4.69-5.42s4.19 2 4.19 4.45c0 .29 0 .64-.06 1.07m7.42-3.27c-2.15-.42-3.14 1-3.14 4.11v4.17h-2.19v-8.6a12.86 12.86 0 0 0-1.53-.21v-1.36a22.66 22.66 0 0 1 3.63-.15 16.91 16.91 0 0 1-.2 2.27 3.17 3.17 0 0 1 3.49-2.46l-.1 2.18m3.41 8.49a8.51 8.51 0 0 1-2.28-.29l.17-1.88a6.44 6.44 0 0 0 2.25.39c1.16 0 2-.52 2-1.34 0-2.11-4.5-.83-4.5-4.38 0-1.8 1.36-3.19 4.19-3.19a10.58 10.58 0 0 1 1.95.21l-.13 1.78a6.5 6.5 0 0 0-1.94-.29c-1.22 0-1.8.49-1.8 1.28 0 2 4.55.91 4.55 4.36 0 1.94-1.7 3.35-4.42 3.35m7.52-12.34a1.35 1.35 0 0 1-1.35-1.34 1.38 1.38 0 1 1 1.37 1.34m-1.1 12.13v-8.55a12.31 12.31 0 0 0-1.53-.21v-1.36a23.45 23.45 0 0 1 3.72-.15v10.27h-2.19m8.31.19c-2.19 0-2.85-.85-2.85-3.14v-5.6h-2V96h2v-3.3l2.21-.6V96h2.69v1.72h-2.69v4.92c0 1.52.31 1.94 1.35 1.94a6.13 6.13 0 0 0 1.26-.15l.18 1.78a10.72 10.72 0 0 1-2.15.25m8.83.54c-1.28 3.44-2.65 4.49-5 4.49a9 9 0 0 1-1.3-.12l.25-1.93a4.57 4.57 0 0 0 1.26.17c1 0 1.88-.48 2.56-2.32l.37-1L185.73 96h2.47l1.68 4.69a27.93 27.93 0 0 1 .8 2.69c.2-.83.64-2.17 1-3.2l1.51-4.18h2.38l-4.16 11m13.66-9.39c-1.34 0-2.64 1-2.64 3.39s.91 3.54 2.62 3.54c1.43 0 2.62-1.12 2.62-3.5 0-2.19-.84-3.43-2.6-3.43m-.23 8.83c-2.85 0-4.71-1.59-4.71-5.21 0-3.1 2-5.48 5.13-5.48 2.74 0 4.69 1.53 4.69 5.15 0 3.16-2.07 5.54-5.11 5.54M218 93a4.84 4.84 0 0 0-1.4-.2c-1.32 0-1.93.72-1.93 2.33V96h2.67v1.72h-2.67v8.55h-2.18v-8.59h-2V96h2v-.78c0-2.82 1.34-4.18 4-4.18a7.15 7.15 0 0 1 1.68.19L218 93m-31.17 56.32v-18.47c0-3.58-1.14-5.72-5.05-5.72-5 0-8.76 4.57-8.76 10.36v13.83h-7.14v-24a32.91 32.91 0 0 0-4.78-.58V121a83.79 83.79 0 0 1 11.65-.4 33.47 33.47 0 0 1-.54 5.66c1.95-3.7 6.09-6.24 11.68-6.24 7.62 0 10 4.16 10 9.2v20.14h-7.14m24.56.48c-7.16 0-9.32-2.38-9.32-8.8v-15.68h-6.14v-4.8H202v-8.88l7.23-1.67v10.55H218v4.8h-8.77v13.77c0 4.28 1 5.44 4.38 5.44a22.31 22.31 0 0 0 4.12-.4l.61 5a39.67 39.67 0 0 1-7 .7m-79.79-14.76a25.07 25.07 0 0 0 8.89 6 9.18 9.18 0 0 1-1.38-5.72s0-3.13.13-4.29a7.28 7.28 0 0 1 7.6-6.59c4.31 0 7 2.49 6.84 6.59v.05a94.22 94.22 0 0 0-12.28.54v3.82l19.32 1.06c.14-1.22.28-3.38.28-4.19 0-6.83-4.17-12.44-13.89-12.44-9.92 0-15.53 6.34-15.53 15v.11"/><path class="cls-1" d="M158.56 143.4l1.05 4.85a39.49 39.49 0 0 1-11.55 1.75c-15.73.47-22.77-9.3-24.4-11.31l-6.84-8.47v19.09h-7.14v-39.05h7.14v18.11L132 110.26h8.26l-16.44 18.8s4.34 5.34 6.1 7.26c2.86 3.11 11.82 12.9 28.66 7.08"/></g></svg>