<svg xmlns="http://www.w3.org/2000/svg" viewBox="0 0 336 280"><title/><path class="copy2-color" d="M62.82 125.57l.07 3.14a7.73 7.73 0 0 1-.66 3.35 6.5 6.5 0 0 1-2.12 2.45 17.74 17.74 0 0 1-4 2l-1.42-2.49v-.41a9.51 9.51 0 0 0 3-2.19 4.34 4.34 0 0 0 .88-2.82V126l-.2-11.9-3.66.1-.35-.34.25-3.21h8.45zm21.3-12.37c1.7 1.9 2.54 4.6 2.54 8.09q0 5.73-2.76 8.84t-7.8 3.1a9 9 0 0 1-7.19-2.91c-1.69-1.95-2.54-4.7-2.54-8.27 0-3.75.92-6.63 2.75-8.66s4.42-3 7.78-3a9.19 9.19 0 0 1 7.22 2.81zm-11.64 2.64q-1.24 1.72-1.24 5.63 0 4.44 1.22 6.35a4.47 4.47 0 0 0 4.06 1.89 4.58 4.58 0 0 0 4-1.74q1.24-1.74 1.24-5.71 0-4.38-1.22-6.26a4.47 4.47 0 0 0-4.06-1.88 4.59 4.59 0 0 0-4 1.72zm22.12 10.01l.2 7h-4.69l.24-6.63-.24-15.59h4.76zm24.05.15l.17 6.87h-5l-9.07-15h-.28v7.39l.13 7.66h-4.24l.24-6.56-.2-15.66h5l9.07 15h.31l-.1-14.84 4.31-.27zm27.91-4v2.93a7.86 7.86 0 0 1-2.31 6.14q-2.35 2.17-6.73 2.18-4.22 0-6.42-2.11a7.67 7.67 0 0 1-2.11-6v-3.21l-.1-11.18h4.69l-.24 13.76a5.22 5.22 0 0 0 1.07 3.73 4.28 4.28 0 0 0 3.34 1.21c3 0 4.48-1.57 4.45-4.69l-.24-14h4.76zm17.7-10.47l-.76 4-.69.27a11 11 0 0 0-2.43-1.31 6.48 6.48 0 0 0-2.29-.48 3.21 3.21 0 0 0-2.21.74 2.25 2.25 0 0 0-.83 1.71 2 2 0 0 0 .91 1.69 17.47 17.47 0 0 0 2.88 1.62 26.59 26.59 0 0 1 3.09 1.61 7 7 0 0 1 2 1.94 5.1 5.1 0 0 1 .84 3 6.17 6.17 0 0 1-1 3.47 7 7 0 0 1-2.93 2.48 10 10 0 0 1-4.39.92 16.59 16.59 0 0 1-6.59-1.42l.66-4.34.52-.28a10.08 10.08 0 0 0 3 1.85 8.23 8.23 0 0 0 2.91.63 3.47 3.47 0 0 0 2.37-.74 2.27 2.27 0 0 0 .84-1.77 2.15 2.15 0 0 0-.91-1.8 18.2 18.2 0 0 0-2.95-1.65 25.33 25.33 0 0 1-3-1.56 6.56 6.56 0 0 1-2-1.93 5.06 5.06 0 0 1-.83-2.93 6.26 6.26 0 0 1 1-3.51 7.07 7.07 0 0 1 2.89-2.46 9.68 9.68 0 0 1 4.25-.9 14.77 14.77 0 0 1 5.65 1.15zm27.09 21.36h-4.76L186 130l-.58-2.07-4.35-.1-3.83.1-.59 1.83-.58 3.14h-4.63l7.56-22.23h5.55zm-6.9-8.59l-2.63-9.25h-.31l-3 9.25 3 .07zM207 111.05l-.27 3.48-4.18-.21h-1.38l-.17 11.53.21 7h-4.7l.25-6.63-.18-11.94h-1.38l-4.24.21-.31-.38.31-3.48h15.77zM73.93 156.46v2.93a7.82 7.82 0 0 1-2.31 6.14c-1.62 1.47-3.85 2.17-6.77 2.17s-4.94-.7-6.41-2.1a7.63 7.63 0 0 1-2.11-6v-3.21l-.11-11.18H61l-.24 13.77a5.33 5.33 0 0 0 1.07 3.73 4.34 4.34 0 0 0 3.35 1.2q4.49 0 4.45-4.69l-.24-14h4.71zm23.29 4.07l.17 6.86h-5l-9.07-15H83v7.38l.14 7.66h-4.28l.24-6.55-.2-15.67h5l9.1 15.01h.32l-.11-14.84 4.31-.28zm10.11-.18l.21 7h-4.7l.24-6.62-.24-15.6h4.76zm15.42 7.04h-5.59l-6.79-22.22h4.76l.55 2.93 4.21 15h.31l4.83-14.7.59-3.18h4.62zm24.05-3.86l.28.38-.31 3.48h-13.94l.24-6.62-.24-15.6h14.08l.27.38-.34 3.49-5.32-.18h-4l-.1 5.35 3.83.07 3.62-.11.28.35-.31 3.48-3.94-.1h-3.55v2.38l.11 3.35h3.9zm20.6 2.76l-.07.52a16.43 16.43 0 0 1-4.59.93l-.48-.38c-1.66-2.85-3-5.34-4-7.45h-3.34v.44l.2 7h-4.69l.24-6.62-.24-15.6h8.52a7.78 7.78 0 0 1 5.39 1.71 6.22 6.22 0 0 1 1.89 4.88 7.38 7.38 0 0 1-1.08 3.91 8.43 8.43 0 0 1-3.06 2.92q2.66 4.28 5.31 7.74zm-12.45-10l3.41.14a4.06 4.06 0 0 0 2.93-4.24 3.42 3.42 0 0 0-.94-2.64 4.39 4.39 0 0 0-2.92-.95l-2.35.14zM183.52 146l-.76 4-.69.28a11.34 11.34 0 0 0-2.44-1.31 6.3 6.3 0 0 0-2.29-.49 3.17 3.17 0 0 0-2.21.75 2.23 2.23 0 0 0-.83 1.7 2.06 2.06 0 0 0 .92 1.69 18.13 18.13 0 0 0 2.88 1.63 28.49 28.49 0 0 1 3.09 1.6 7 7 0 0 1 2 2 5 5 0 0 1 .85 3 6.2 6.2 0 0 1-1 3.47 7.18 7.18 0 0 1-2.93 2.48 10 10 0 0 1-4.38.91 16.71 16.71 0 0 1-6.59-1.41l.65-4.35.52-.27a10.17 10.17 0 0 0 3 1.84 8.05 8.05 0 0 0 2.92.64 3.48 3.48 0 0 0 2.36-.74 2.31 2.31 0 0 0 .84-1.78 2.14 2.14 0 0 0-.91-1.79 17.66 17.66 0 0 0-2.95-1.66 27.11 27.11 0 0 1-3-1.55 6.67 6.67 0 0 1-2-1.93 5.11 5.11 0 0 1-.83-2.94 6.23 6.23 0 0 1 1-3.5 7 7 0 0 1 2.9-2.47 9.74 9.74 0 0 1 4.24-.89 15 15 0 0 1 5.64 1.09zm8.9 14.35l.2 7h-4.69l.24-6.62-.24-15.6h4.76zm19.63-14.8l-.27 3.49-4.18-.21h-1.38l-.17 11.52.21 7h-4.7l.24-6.62-.17-11.94h-1.38L196 149l-.31-.38.31-3.49h15.77zM224 161.22l.2 6.17h-4.66l.21-6.17v-1.31l-7.08-14.74h5l.48 1.56 3.77 8.45h.31l4.21-8.32.65-1.69h4.8l-7.77 14.56zM72.88 182.21q2.53 2.85 2.53 8.09 0 5.73-2.76 8.84t-7.8 3.1a9 9 0 0 1-7.19-2.91c-1.69-2-2.54-4.7-2.54-8.27 0-3.75.92-6.63 2.75-8.66s4.42-3 7.78-3a9.21 9.21 0 0 1 7.23 2.81zm-11.65 2.64Q60 186.58 60 190.48q0 4.44 1.22 6.35a4.47 4.47 0 0 0 4.06 1.89 4.58 4.58 0 0 0 4-1.74q1.24-1.74 1.24-5.71 0-4.38-1.22-6.26a4.47 4.47 0 0 0-4.06-1.88 4.59 4.59 0 0 0-4.01 1.72zm22.33-1.45l-.11 6h3.11l3.76-.1.31.34-.35 3.49-4.1-.11h-2.8v1.76l.21 7h-4.7l.24-6.63-.24-15.59h13.19l.27.38-.35 3.64-5.28-.21zm34.02 17.53l-.07.52a36.14 36.14 0 0 1-4.56.79l-.55-.27q-4.52-6-8-11.53l-.07 4.42.17 7h-4.69l.24-6.63-.24-15.59h4.72l-.17 10.36 6.25-8.17 1.27-2.14h5l-7.87 10.49q3.75 5.12 8.57 10.75zm16.35-2.93l.28.38-.31 3.49H120l.24-6.63-.24-15.56h14l.27.38-.34 3.48-5.32-.17h-4l-.1 5.35 3.83.07 3.62-.1.28.34-.31 3.49-3.94-.11h-3.55v2.38l.11 3.35h3.9zm21.95-3l.17 6.87h-5l-9.07-15.05h-.28v7.39l.13 7.66h-4.24l.24-6.56-.2-15.66h5l9.07 15h.31l-.1-14.84 4.31-.27zm19.56-14.94l-.27 3.48-4.18-.21h-1.38l-.17 11.53.21 7H165l.24-6.63-.24-11.9h-1.38l-4.24.21-.31-.38.31-3.48h15.77z"/><path class="cls-2 stroke2-color" d="M121 246l76.53-69m13 0L134 246M110.25 62.41l-76.54 69m-13.53.02l76.53-69"/></svg>