<svg xmlns="http://www.w3.org/2000/svg" viewBox="0 0 336 280"><defs><style>.word-color{fill:#1db8d3}.stroke-color{fill:none;stroke:#005592;stroke-miterlimit:10;stroke-width:1.25px}</style></defs><title>Artboard 35</title><path class="word-color" d="M76.91 156.18H72l-3.32-10.62h-.31L65 156.18h-4.9L53.89 134h4.59l.35 2.73 3.93 14.66h.31l3.76-12-1.59-5.39H70l.51 3.21 4 14.18h.31l4.5-14.39.55-3h4.35zm26.53 0h-4.76l-.55-2.89-.59-2.08-4.35-.1-3.83.1-.58 1.79-.59 3.14h-4.62L91.09 134h5.55zm-6.9-8.59l-2.62-9.25h-.31l-3 9.25 3 .07zm28.46 1.73l.17 6.86h-5l-9.08-15h-.27v7.38l.14 7.66h-4.25l.25-6.55-.24-15.67h5l9.08 15h.31l-.11-14.83 4.32-.28zm19.61-14.98l-.28 3.49-4.18-.21h-1.38l-.17 11.52.21 7h-4.69l.24-6.62-.17-11.94h-1.38l-4.25.21-.31-.38.31-3.49h15.77z" id="word-1"/><path class="word-color" d="M70.11 168.85l-.28 3.48-4.17-.21h-1.38l-.17 11.53.2 7h-4.69l.24-6.63-.17-11.94h-1.38l-4.25.21-.31-.38.31-3.48h15.77zM88.24 171q2.54 2.85 2.54 8.1c0 3.81-.92 6.76-2.76 8.83s-4.44 3.1-7.8 3.1a9 9 0 0 1-7.22-2.91c-1.7-2-2.54-4.7-2.54-8.27 0-3.75.91-6.63 2.74-8.66s4.42-3 7.78-3a9.2 9.2 0 0 1 7.26 2.81zm-11.64 2.64q-1.25 1.73-1.25 5.63c0 3 .41 5.08 1.23 6.35a4.47 4.47 0 0 0 4 1.89 4.59 4.59 0 0 0 4-1.74c.82-1.16 1.24-3.06 1.24-5.71q0-4.38-1.23-6.26a4.45 4.45 0 0 0-4.05-1.88 4.58 4.58 0 0 0-3.94 1.72zm46.16 17.05h-4.14l-.34-6.73-.8-8.56h-.34l-5 12.94h-3.62L104 175.4h-.31l-.87 8.11-.48 7.18h-3.9l2.24-22.22h5.38l.9 3.28 3.52 10.52h.31l3.69-10.52 1-3.28h5.28zm21.81 0h-4.76l-.55-2.9-.59-2.07-4.35-.1-3.83.1-.58 1.83-.59 3.14h-4.62l7.52-22.22h5.55zm-6.9-8.59l-2.62-9.25h-.31l-3 9.25 3 .07zm27.91 7.62l-.06.52a36.14 36.14 0 0 1-4.52.76l-.55-.27q-4.53-6-8-11.53l-.07 4.42.17 7h-4.66l.25-6.63-.25-15.59h4.73l-.17 10.31 6.24-8.17 1.28-2.14h5l-7.91 10.6q3.69 5.1 8.52 10.72zm16.36-2.9l.28.38-.32 3.49H168l.25-6.63-.25-15.59h14l.28.38-.35 3.48-5.31-.17h-4l-.11 5.35 3.83.07 3.63-.1.27.34-.31 3.49-3.93-.11h-3.56v2.38l.1 3.35h3.9zm26.26 3.87h-4.76l-.56-2.9-.58-2.07-4.35-.1-3.83.1-.59 1.83-.58 3.14h-4.63l7.52-22.22h5.56zm-6.9-8.59l-2.63-9.25h-.31l-3 9.25 3 .07z" id="word-2"/><path class="word-color" d="M241.77 203.8a4.32 4.32 0 0 1 2.45 3.9 4.8 4.8 0 0 1-.81 2.66 6.46 6.46 0 0 1-2.33 2.1L238.6 214l-.07.17.21 2.93-3.21.42-.31-.32-.35-4.14.17-.34 3.11-1.59a3 3 0 0 0 1.93-2.66 2.31 2.31 0 0 0-1.48-2.12 13.46 13.46 0 0 0-4.8-1l-.31-.44.83-2.56.45-.24a16.12 16.12 0 0 1 7 1.69zM239 221.16a2.37 2.37 0 0 1 .6 1.72 2.6 2.6 0 0 1-.66 1.87 2.34 2.34 0 0 1-1.79.69 2.29 2.29 0 0 1-1.74-.63 2.38 2.38 0 0 1-.61-1.75 2.51 2.51 0 0 1 .68-1.83 2.44 2.44 0 0 1 1.84-.69 2.23 2.23 0 0 1 1.68.62zM72.28 205.53q2.59 2.68 2.59 7.73 0 5.9-2.9 9t-8.28 3.14c-1.08 0-2.37 0-3.88-.07s-2.8-.11-3.88-.18l.24-6.62-.24-15.53 8.93-.14c3.22-.03 5.7.87 7.42 2.67zm-2.28 8.8c0-2.72-.45-4.69-1.33-5.92a4.78 4.78 0 0 0-4.16-1.85c-1.22 0-2.52.06-3.9.17l-.21 11.43.11 3.41c1.61.16 2.94.24 4 .24q5.49 0 5.49-7.48zm12.84 3.83l.21 7h-4.69l.24-6.62-.24-15.54h4.76zm10.39-11.46l-.1 6h3.1l3.76-.11.31.35-.34 3.48-4.11-.1h-2.79v1.76l.21 7h-4.73l.24-6.62-.24-15.46h13.21l.28.38-.35 3.52-5.28-.2zm15.77 0l-.1 6h3.1l3.77-.11.31.35-.35 3.48-4.11-.1h-2.79v1.76l.2 7h-4.69l.24-6.62-.24-15.6h13.22l.27.38-.34 3.52-5.28-.2zm25 14.63l.27.38-.31 3.48H120l.25-6.62L120 203h14.08l.28.38-.35 3.49-5.31-.17h-4l-.11 5.35 3.83.07 3.63-.11.27.35-.31 3.48-3.93-.1h-3.56v2.39l.1 3.34h3.9zm20.58 2.76l-.07.52a16.58 16.58 0 0 1-4.59.93l-.48-.38c-1.66-2.85-3-5.34-4-7.45h-3.35v.45l.21 7h-4.69l.24-6.62-.24-15.6h8.52a7.76 7.76 0 0 1 5.38 1.71 6.21 6.21 0 0 1 1.9 4.88 7.33 7.33 0 0 1-1.09 3.92 8.46 8.46 0 0 1-3.05 2.91q2.65 4.28 5.31 7.73zm-12.46-10l3.42.14a4.07 4.07 0 0 0 2.93-4.24 3.42 3.42 0 0 0-.95-2.64 4.39 4.39 0 0 0-2.91-1l-2.35.14zm29.78 7.24l.28.38-.31 3.48h-13.94l.24-6.62-.24-15.6H172l.28.38-.35 3.49-5.31-.17h-4l-.11 5.35 3.83.07L170 212l.27.35-.31 3.48-3.93-.1h-3.55v2.39l.1 3.34h3.9zm21.95-3l.17 6.86h-5l-9.08-15h-.27v7.38l.14 7.66h-4.24l.24-6.55-.29-15.68h5l9.08 15h.31l-.1-14.84 4.31-.28zM213.89 204l-.83 3.9-.37.17a8.67 8.67 0 0 0-2.28-1.13 7.94 7.94 0 0 0-2.56-.42q-5.47 0-5.48 7.21a9.89 9.89 0 0 0 1.43 5.85 4.87 4.87 0 0 0 4.19 1.95 9.25 9.25 0 0 0 2.64-.4 9.68 9.68 0 0 0 2.47-1.08l.41.24-.38 4a13.06 13.06 0 0 1-5.52 1.2q-5 0-7.57-2.89t-2.61-8.32q0-5.52 2.78-8.56t7.85-3a12.52 12.52 0 0 1 5.83 1.28zM231 221.33l.28.38-.31 3.48H217l.24-6.62L217 203h14.08l.27.38-.34 3.49-5.32-.17h-4l-.1 5.35 3.83.07L229 212l.28.35-.31 3.48-3.94-.1h-3.55v2.39l.11 3.34h3.9z" id="word-3"/><path class="stroke-color" d="M109.33 85.7l-76.54 69M94.9 84.72l-76.53 69M181.78 280l76.53-69m13.01 0l-76.54 69" id="Stroke_1_Dark_Blue" data-name="Stroke 1 Dark Blue"/></svg>