<svg xmlns="http://www.w3.org/2000/svg" viewBox="0 0 300 600"><title>300x600 Frame 1 copy</title><path d="M89.17 387.12h-4.35l-.5-2.65-.54-1.89-4-.1-3.51.1-.53 1.67-.54 2.87H71l6.87-20.31H83zm-6.31-7.85l-2.39-8.46h-.29l-2.77 8.46 2.71.06zm21.97-10.88a6 6 0 0 1 1.72 4.6 7.79 7.79 0 0 1-1 4 6.8 6.8 0 0 1-2.89 2.67 9.64 9.64 0 0 1-4.4.94h-2v.07l.19 6.43h-4.31l.22-6.06-.22-14.25h7.79a6.88 6.88 0 0 1 4.9 1.6zm-2.73 5a3.37 3.37 0 0 0-.87-2.54 3.87 3.87 0 0 0-2.66-.9l-2.14.13-.13 7.32 2.9.12c1.93-.52 2.9-1.94 2.9-4.15zm20.17-5A6 6 0 0 1 124 373a7.79 7.79 0 0 1-1 4 6.74 6.74 0 0 1-2.89 2.67 9.63 9.63 0 0 1-4.39.94h-2v.07l.19 6.43h-4.29l.22-6.06-.22-14.25h7.79a6.88 6.88 0 0 1 4.86 1.59zm-2.73 5a3.41 3.41 0 0 0-.86-2.54 3.92 3.92 0 0 0-2.67-.9l-2.14.13-.13 7.32 2.9.12c1.94-.52 2.9-1.94 2.9-4.15zm18.61 10.54l-.28 3.19h-11l.22-6.06-.22-14.25h4.35l-.22 13.88.1 2.9h6.81zm8.58-2.46l.19 5.65h-4.26l.19-5.65v-1.19l-6.47-13.47h4.54l.45 1.42 3.43 7.73h.29l3.84-7.61.6-1.54h4.39l-7.1 13.31zm31.09-.63l.16 6.28h-4.6l-8.3-13.75h-.25v6.75l.13 7h-3.88l.22-6-.19-14.32h4.57l8.3 13.75h.28l-.1-13.56 4-.25zm19.51-11.71c1.55 1.73 2.32 4.2 2.32 7.39q0 5.24-2.52 8.08a9.06 9.06 0 0 1-7.13 2.84 8.25 8.25 0 0 1-6.58-2.67c-1.54-1.78-2.32-4.29-2.32-7.55q0-5.14 2.51-7.92a9.08 9.08 0 0 1 7.11-2.77 8.37 8.37 0 0 1 6.61 2.6zm-10.64 2.41c-.76 1-1.14 2.77-1.14 5.14 0 2.71.37 4.65 1.12 5.8a4.07 4.07 0 0 0 3.71 1.74 4.19 4.19 0 0 0 3.66-1.59q1.13-1.61 1.13-5.22 0-4-1.12-5.73a4.1 4.1 0 0 0-3.7-1.72 4.19 4.19 0 0 0-3.66 1.58zm34.72 15.58h-4.48l-3-9.71h-.28l-3.06 9.71h-4.51l-5.68-20.31h4.2l.31 2.49 3.6 13.4h.28l3.44-10.94-1.45-4.95h4.35l.48 2.93 3.65 13h.29l4.1-13.12.5-2.77h4z" fill="#fff" data-name="Stroke 2 Light Blue"/></svg>