<svg xmlns="http://www.w3.org/2000/svg" viewBox="0 0 300 600"><title>300x600 Frame 1 copy</title><g fill="#fff" data-name="Stroke 2 Light Blue"><path d="M67 242.08c-7.38 0-8.94-4-8.94-8.35v-15.49h3.74v15.21c0 3.13 1.05 5.5 5.4 5.5 3.83 0 5.57-1.6 5.57-6v-14.71h3.72v14.45c0 6.26-3.38 9.39-9.54 9.39m25.16-.35v-11.1c0-2.16-.59-3.44-2.61-3.44-2.58 0-4.52 2.75-4.52 6.23v8.31h-3.69v-14.4a24.47 24.47 0 0 0-2.58-.35v-2.3a38.43 38.43 0 0 1 6.13-.24 24.34 24.34 0 0 1-.28 3.41h.07a6.3 6.3 0 0 1 6-3.76c3.93 0 5.18 2.5 5.18 5.53v12.11h-3.7M102 221.3a2.26 2.26 0 1 1 0-4.52 2.26 2.26 0 1 1 0 4.52m-1.85 20.43v-14.4a23.91 23.91 0 0 0-2.57-.35v-2.3a39.41 39.41 0 0 1 6.26-.24v17.29h-3.69m16.08 0h-3.8L106 224.44h4.11l3.23 9.15c.42 1.18.8 2.4 1.11 3.55.28-1.08.63-2.3 1-3.41l3.31-9.29h4l-6.54 17.29m14.37-14.89c-2.09 0-3.54 1.53-3.86 4h7.35c.06-2.47-1.29-4-3.49-4m7.1 6.54h-11c-.11 3.93 1.67 5.71 5.12 5.71a12.44 12.44 0 0 0 5-1l.49 2.92a16.71 16.71 0 0 1-6.13 1.11c-5.32 0-8.28-2.78-8.28-8.87 0-5.22 2.86-9.12 7.9-9.12s7.07 3.37 7.07 7.48a16.63 16.63 0 0 1-.11 1.81m12.45-5.64c-3.62-.7-5.29 1.74-5.29 6.92v7h-3.69v-14.4a24.11 24.11 0 0 0-2.58-.35v-2.3a38.48 38.48 0 0 1 6.13-.24 27.57 27.57 0 0 1-.35 3.82h.07c.77-2.33 2.47-4.48 5.88-4.14l-.17 3.66m5.67 14.33a14.82 14.82 0 0 1-3.83-.48l.28-3.17a10.93 10.93 0 0 0 3.8.66c1.94 0 3.3-.87 3.3-2.26 0-3.55-7.58-1.4-7.58-7.38 0-3 2.29-5.36 7.06-5.36a17 17 0 0 1 3.27.35l-.21 3a11 11 0 0 0-3.27-.49c-2.05 0-3 .84-3 2.16 0 3.41 7.65 1.53 7.65 7.35 0 3.27-2.85 5.63-7.45 5.63m12.72-20.79a2.26 2.26 0 1 1 2.33-2.26 2.27 2.27 0 0 1-2.33 2.26m-1.84 20.43v-14.4a24.47 24.47 0 0 0-2.58-.35v-2.3a39.46 39.46 0 0 1 6.26-.24v17.29h-3.68m14.02.32c-3.68 0-4.8-1.43-4.8-5.29v-9.43h-3.31v-2.89H176v-5.5l3.72-1v6.51h4.53v2.89h-4.53v8.28c0 2.57.53 3.27 2.27 3.27a10.56 10.56 0 0 0 2.12-.24l.31 3a17.67 17.67 0 0 1-3.62.42m14.86.93c-2.16 5.78-4.46 7.55-8.39 7.55a15.23 15.23 0 0 1-2.19-.2l.42-3.24a8.36 8.36 0 0 0 2.12.28c1.64 0 3.17-.8 4.32-3.9l.62-1.71-6.47-17.29h4.17l2.82 7.9c.56 1.53 1 3.06 1.36 4.52.34-1.39 1.08-3.65 1.7-5.39l2.47-7h4l-7 18.51m23.05-15.81c-2.26 0-4.45 1.74-4.45 5.71s1.54 5.95 4.42 5.95c2.4 0 4.42-1.88 4.42-5.88 0-3.69-1.43-5.78-4.39-5.78m-.38 14.86c-4.8 0-7.93-2.68-7.93-8.77 0-5.22 3.38-9.22 8.63-9.22 4.63 0 7.9 2.57 7.9 8.67 0 5.32-3.48 9.32-8.6 9.32m22.23-22.62a8.05 8.05 0 0 0-2.37-.35c-2.22 0-3.23 1.22-3.23 3.93v1.4h4.49v2.89h-4.49v14.4h-3.69v-14.4h-3.31v-2.89h3.31v-1.33c0-4.73 2.26-7 6.75-7a12.44 12.44 0 0 1 2.82.32l-.28 3.06M188 314.29V283.2c0-6-1.93-9.64-8.51-9.64-8.4 0-14.75 7.69-14.75 17.44v23.29h-12V274a55.57 55.57 0 0 0-8-1v-6.43a144.52 144.52 0 0 1 19.62-.68 58 58 0 0 1-.91 9.55h.06c3.29-6.24 10.26-10.53 19.68-10.53 12.82 0 16.91 7 16.91 15.5v33.91H188m41.17.85c-12 0-15.69-4-15.69-14.81V274h-10.34v-8.09h10.34v-14.99l12.17-2.83v17.77h14.78V274h-14.78v23.19c0 7.21 1.71 9.16 7.39 9.16a37.33 37.33 0 0 0 6.93-.68l1 8.38a66.35 66.35 0 0 1-11.83 1.17m-134.3-24.84c3.18 3.11 8.11 7.63 15 10.15-1.67-2.51-2.46-5.4-2.32-9.64 0 0 0-5.27.23-7.21 1-6.83 5.87-11.11 12.79-11.11 7.26 0 11.75 4.19 11.52 11.11v.08a157.68 157.68 0 0 0-20.67.91v6.43l32.52 1.78c.24-2.05.47-5.69.47-7.05 0-11.5-7-21-23.38-21-16.71 0-26.16 10.69-26.16 25.31v.19"/><path d="M140.33 304.33l1.78 8.17a66.41 66.41 0 0 1-19.46 3c-26.49.79-38.35-15.67-41.08-19.05L70 282.14v32.16H58v-65.78h12V279l25.53-30.5h13.91l-27.65 31.68s7.31 9 10.28 12.23c4.81 5.24 19.9 21.73 48.26 11.92"/></g></svg>