<svg xmlns="http://www.w3.org/2000/svg" viewBox="0 0 300 600"><title>300x600 Frame 1 copy</title><g fill="#003882" data-name="Kent Logo"><path d="M29.85 36.35c-3.25 0-3.94-1.77-3.94-3.68v-6.81h1.67v6.69C27.58 33.93 28 35 30 35c1.69 0 2.45-.7 2.45-2.63v-6.51h1.64v6.36c0 2.75-1.49 4.13-4.2 4.13m11.04-.15v-4.89c0-.95-.26-1.51-1.15-1.51-1.14 0-2 1.21-2 2.74v3.66h-1.62v-6.34A11 11 0 0 0 35 29.7v-1a18.3 18.3 0 0 1 2.7-.11 10.16 10.16 0 0 1-.13 1.51 2.78 2.78 0 0 1 2.64-1.66c1.73 0 2.28 1.1 2.28 2.44v5.32h-1.56m4.33-8.99a1 1 0 1 1 0-2 1 1 0 1 1 0 2m-.81 9v-6.35a11 11 0 0 0-1.13-.16v-1a18.71 18.71 0 0 1 2.76-.11v7.61h-1.63m7.1 0h-1.67L47 28.58h1.81l1.43 4c.18.53.35 1.06.49 1.57.13-.48.28-1 .45-1.51l1.45-4.09h1.77l-2.85 7.65m6.32-6.56a1.75 1.75 0 0 0-1.7 1.75h3.23a1.5 1.5 0 0 0-1.53-1.75M61 32.52h-4.86c0 1.73.73 2.52 2.25 2.52a5.55 5.55 0 0 0 2.19-.46l.22 1.28a7.41 7.41 0 0 1-2.7.49c-2.34 0-3.65-1.22-3.65-3.9 0-2.3 1.26-4 3.48-4S61 29.92 61 31.72v.8m5.5-2.46c-1.59-.31-2.33.76-2.33 3v3.1h-1.62v-6.3a10.8 10.8 0 0 0-1.14-.16v-1a18.36 18.36 0 0 1 2.7-.11 12.52 12.52 0 0 1-.11 1.68 2.34 2.34 0 0 1 2.59-1.82l-.08 1.61M69 36.35a6.41 6.41 0 0 1-1.69-.21l.13-1.4a4.64 4.64 0 0 0 1.67.3c.85 0 1.45-.39 1.45-1 0-1.56-3.34-.61-3.34-3.25 0-1.33 1-2.36 3.11-2.36a7.65 7.65 0 0 1 1.44.15l-.09 1.32a4.87 4.87 0 0 0-1.44-.21c-.9 0-1.33.37-1.33.95 0 1.5 3.37.67 3.37 3.23 0 1.44-1.26 2.48-3.28 2.48m5.61-9.14a1 1 0 1 1 1-1 1 1 0 0 1-1 1m-.81 9v-6.35a10.8 10.8 0 0 0-1.14-.16v-1a18.77 18.77 0 0 1 2.76-.11v7.61H73.8m6.2.14c-1.62 0-2.11-.63-2.11-2.33v-4.15H76.4v-1.28h1.46v-2.42l1.64-.44v2.86h2v1.28h-2v3.64c0 1.14.23 1.44 1 1.44a4.52 4.52 0 0 0 .94-.1l.13 1.31a7.37 7.37 0 0 1-1.59.19m6.54.4c-1 2.54-2 3.32-3.7 3.32a7.28 7.28 0 0 1-1-.09l.18-1.43a3.5 3.5 0 0 0 .94.13c.72 0 1.39-.36 1.9-1.72l.27-.75-2.81-7.62h1.84l1.24 3.48c.25.68.43 1.35.6 2 .16-.61.48-1.6.76-2.37l1.08-3.1h1.78l-3.08 8.16m10.12-6.94c-1 0-2 .77-2 2.51s.68 2.62 1.95 2.62c1.06 0 2-.83 2-2.59s-.63-2.54-1.94-2.54m-.17 6.54c-2.11 0-3.49-1.18-3.49-3.86a3.77 3.77 0 0 1 3.8-4.06c2 0 3.48 1.13 3.48 3.82a3.81 3.81 0 0 1-3.79 4.1m9.78-9.96a3.74 3.74 0 0 0-1-.15c-1 0-1.42.54-1.42 1.73v.61h2v1.28h-2v6.34h-1.63v-6.34h-1.46v-1.28h1.46V28c0-2.08 1-3.09 3-3.09a5.7 5.7 0 0 1 1.25.13l-.13 1.35M83.12 68.14V54.46c0-2.66-.85-4.25-3.75-4.25-3.69 0-6.49 3.39-6.49 7.68v10.25h-5.29V50.38a24.85 24.85 0 0 0-3.54-.38v-2.88a62.37 62.37 0 0 1 8.63-.3 25 25 0 0 1-.4 4.2c1.45-2.74 4.52-4.63 8.66-4.63 5.65 0 7.45 3.09 7.45 6.82v14.93h-5.3m18.18.39c-5.31 0-6.91-1.76-6.91-6.52V50.38h-4.55v-3.56h4.55v-6.58L99.72 39v7.82h6.51v3.56h-6.51v10.21c0 3.18.75 4 3.25 4a16.74 16.74 0 0 0 3.06-.29l.45 3.68a29.21 29.21 0 0 1-5.21.52M42.13 57.61a18.65 18.65 0 0 0 6.59 4.48 6.79 6.79 0 0 1-1-4.25s0-2.31.1-3.17a5.39 5.39 0 0 1 5.63-4.89c3.19 0 5.17 1.84 5.07 4.89a69 69 0 0 0-9.1.4v2.83l14.32.78c.1-.9.21-2.5.21-3.1 0-5.07-3.1-9.23-10.3-9.23S42.13 51.1 42.13 57.53v.08"/><path d="M62.16 63.76l.78 3.59a29.14 29.14 0 0 1-8.56 1.31c-11.67.35-16.89-6.9-18.09-8.39L31.21 54v14.15h-5.29v-29h5.29v13.47l11.24-13.43h6.13L36.39 53.13s3.21 4 4.52 5.38c2.12 2.31 8.76 9.57 21.25 5.25"/></g></svg>